<svg width="316" height="254" viewBox="0 0 316 254" fill="none" xmlns="http://www.w3.org/2000/svg">
<path d="M56.7449 135.243H49.876V251.989H56.7449V135.243Z" fill="#FFBE21"/>
<path d="M56.7477 136.849H49.876" stroke="#A15842" stroke-width="4" stroke-miterlimit="10"/>
<path d="M18.706 228.563C19.4018 226.568 20.7012 224.838 22.4241 223.614C24.147 222.39 26.208 221.733 28.3213 221.733C30.4346 221.733 32.4956 222.39 34.2185 223.614C35.9414 224.838 37.2408 226.568 37.9366 228.563C38.6007 226.658 39.8157 224.993 41.4275 223.78C43.0393 222.566 44.9753 221.859 46.9897 221.747C46.0904 220.144 45.0194 218.644 43.7958 217.273L40.0985 213.114C38.949 211.822 38.2251 210.207 38.025 208.49C37.8248 206.772 38.1582 205.034 38.9798 203.512L42.1178 197.681C41.2368 198.568 36.1439 203.336 28.4136 203.336C20.6833 203.336 15.5904 198.568 14.7094 197.681H14.6954L17.8362 203.512C18.6542 205.037 18.9824 206.777 18.7762 208.495C18.5701 210.213 17.8395 211.826 16.6839 213.114L12.9894 217.256C11.7635 218.627 10.6898 220.128 9.78711 221.731C11.7799 221.869 13.688 222.591 15.2738 223.806C16.8596 225.021 18.0532 226.675 18.706 228.563Z" fill="#4756DF"/>
<path d="M47.5518 234.456C45.4379 234.456 43.3765 235.114 41.6535 236.339C39.9305 237.564 38.6315 239.295 37.9365 241.291C37.242 239.294 35.9431 237.563 34.2201 236.338C32.497 235.113 30.4354 234.455 28.3212 234.455C26.2071 234.455 24.1454 235.113 22.4224 236.338C20.6993 237.563 19.4004 239.294 18.7059 241.291C17.865 238.878 16.1482 236.87 13.8958 235.663C11.6435 234.457 9.02006 234.141 6.54559 234.777C6.68767 241.232 9.28865 247.388 13.8172 251.989H42.9567C47.4761 247.398 50.0763 241.257 50.2283 234.817C49.3563 234.577 48.4561 234.456 47.5518 234.456Z" fill="#4756DF"/>
<path d="M28.3912 203.347C36.1214 203.347 41.2144 198.579 42.0953 197.692H14.687C15.568 198.571 20.6609 203.347 28.3912 203.347Z" fill="#30242A"/>
<path d="M18.7061 241.291C19.4005 239.294 20.6994 237.563 22.4225 236.338C24.1455 235.113 26.2072 234.455 28.3213 234.455C30.4355 234.455 32.4971 235.113 34.2202 236.338C35.9432 237.563 37.2422 239.294 37.9366 241.291C38.7846 238.853 40.5272 236.828 42.8119 235.626C45.0966 234.424 47.7526 234.134 50.2424 234.817C50.3573 230.247 49.2354 225.732 46.9954 221.747C44.9809 221.859 43.045 222.566 41.4331 223.78C39.8213 224.993 38.6063 226.658 37.9422 228.563C37.2464 226.568 35.947 224.838 34.2241 223.614C32.5013 222.39 30.4403 221.733 28.3269 221.733C26.2136 221.733 24.1526 222.39 22.4297 223.614C20.7069 224.838 19.4074 226.568 18.7116 228.563C18.0548 226.68 16.8595 225.031 15.274 223.821C13.6885 222.611 11.7826 221.893 9.79275 221.756C7.56269 225.727 6.44301 230.225 6.5513 234.777C9.02577 234.141 11.6492 234.457 13.9015 235.663C16.1539 236.87 17.8707 238.878 18.7116 241.291H18.7061Z" fill="#3EC1F3"/>
<path d="M30.4216 202.548C30.981 199.124 33.5233 185.554 39.9167 178.179" stroke="#30242A" stroke-width="4" stroke-miterlimit="10" stroke-linecap="round"/>
<path d="M27.4712 202.645C27.4292 198.758 27.0293 179.67 23.2341 168.282" stroke="#30242A" stroke-width="4" stroke-miterlimit="10" stroke-linecap="round"/>
<path d="M44.2924 189.289C49.8981 186.823 53.9926 183.801 53.4377 182.54C52.8828 181.279 47.8887 182.256 42.2829 184.722C36.6772 187.189 32.5827 190.211 33.1376 191.472C33.6925 192.733 38.6867 191.756 44.2924 189.289Z" fill="#30242A"/>
<path d="M44.2891 154.591C46.3044 151.866 47.168 149.088 46.2181 148.385C45.2681 147.683 42.8642 149.322 40.8489 152.046C38.8336 154.771 37.97 157.549 38.92 158.252C39.87 158.955 42.2738 157.315 44.2891 154.591Z" fill="#30242A"/>
<path d="M13.9389 191.226C21.2467 190.121 27.0127 188.179 26.8175 186.888C26.6223 185.598 20.5399 185.448 13.2321 186.553C5.9242 187.658 0.15822 189.6 0.353393 190.891C0.548566 192.181 6.63099 192.331 13.9389 191.226Z" fill="#30242A"/>
<path d="M8.83345 172.163V172.183C9.91321 172.787 10.7276 173.773 11.116 174.948C11.5045 176.122 11.4388 177.4 10.9319 178.528C10.4251 179.657 9.5138 180.554 8.3778 181.044C7.2418 181.534 5.9635 181.581 4.79492 181.175V181.191C10.9198 183.943 16.7958 184.153 17.9146 181.661C19.0333 179.169 14.9612 174.915 8.83345 172.163Z" fill="#FF7235"/>
<path d="M26.9424 152.217C25.6391 151.878 23.9443 153.85 22.7053 156.901C21.2147 153.196 19.0528 150.715 17.5956 151.196C16.1385 151.677 15.8784 154.955 16.8881 158.82C14.0745 157.108 11.5406 156.532 10.6932 157.581C9.61367 158.918 11.6945 162.386 15.3415 165.331C16.379 166.176 17.4954 166.92 18.6752 167.552C18.8763 166.753 19.2738 166.017 19.8316 165.411C20.3894 164.804 21.0898 164.347 21.8691 164.08C22.6485 163.814 23.4822 163.746 24.2944 163.883C25.1067 164.021 25.8717 164.359 26.5201 164.867C27.0667 163.69 27.5031 162.466 27.8234 161.208C29.0009 156.675 28.6065 152.648 26.9424 152.217Z" fill="#FF7235"/>
<path d="M55.3745 172.804C54.9718 171.517 52.4015 171.126 49.1573 171.685C51.5122 168.46 52.4743 165.314 51.2968 164.332C50.1194 163.351 47.1968 164.864 44.4503 167.764C44.4168 164.47 43.5638 162.014 42.2269 161.849C40.5237 161.639 38.6778 165.241 38.1073 169.89C37.9382 171.219 37.897 172.561 37.9842 173.897C38.7688 173.645 39.6043 173.592 40.4145 173.744C41.2246 173.897 41.9839 174.249 42.6231 174.77C43.2624 175.29 43.7613 175.962 44.0746 176.725C44.3878 177.487 44.5055 178.316 44.4168 179.136C45.7048 178.973 46.9752 178.692 48.212 178.297C52.6784 176.907 55.8863 174.443 55.3745 172.804Z" fill="#FF7235"/>
<path d="M42.6603 174.798C42.0207 174.265 41.2566 173.901 40.4391 173.743C39.6215 173.584 38.777 173.634 37.9841 173.889C38.1435 176.101 38.7029 177.805 39.5447 178.423C40.3306 179.15 42.1485 179.393 44.4111 179.127C44.4993 178.317 44.3856 177.498 44.0801 176.743C43.7746 175.987 43.2868 175.319 42.6603 174.798Z" fill="#30242A"/>
<path d="M21.9195 164.064C21.1287 164.325 20.4166 164.781 19.8495 165.391C19.2823 166.001 18.8784 166.744 18.6752 167.552C20.633 168.586 22.3726 169.006 23.3514 168.626C24.3834 168.346 25.5497 166.928 26.5202 164.867C25.8791 164.364 25.1235 164.027 24.3208 163.887C23.518 163.747 22.693 163.808 21.9195 164.064Z" fill="#30242A"/>
<path d="M9.37885 180.467C8.85293 180.174 8.45632 179.694 8.26758 179.122C8.07883 178.55 8.1117 177.928 8.35969 177.379C8.60767 176.831 9.05268 176.395 9.60659 176.159C10.1605 175.923 10.7829 175.903 11.3506 176.104C11.2849 175.295 11.0209 174.514 10.5819 173.831C10.1429 173.148 9.54237 172.584 8.83348 172.189L4.78656 181.175C5.55145 181.442 6.37022 181.517 7.17094 181.393C7.97166 181.27 8.72983 180.952 9.37885 180.467Z" fill="#F5EBDD"/>
<path d="M8.34957 177.382C8.10565 177.931 8.07601 178.551 8.26651 179.12C8.457 179.69 8.85381 180.167 9.37878 180.459C10.051 179.959 10.5848 179.296 10.9297 178.533C11.2747 177.769 11.4195 176.931 11.3505 176.096C10.7802 175.893 10.1543 175.912 9.5979 176.151C9.04151 176.389 8.59568 176.829 8.34957 177.382Z" fill="#4856DF"/>
<path d="M193.177 181.896H122.047L123.249 177.125H154.472L166.381 130.553C168.003 124.209 171.691 118.586 176.863 114.571C182.035 110.555 188.396 108.375 194.944 108.375C210.967 108.375 222.691 123.477 218.717 138.999L211.359 167.775C210.326 171.814 207.978 175.393 204.686 177.95C201.394 180.507 197.345 181.895 193.177 181.896Z" fill="#FFB7D5"/>
<path d="M122.598 225.97V231.021H167.93V225.97H122.598Z" fill="#A15842"/>
<path d="M175.398 249.276L163.607 179.091H126.919L115.127 249.276C115.072 249.61 115.089 249.952 115.179 250.278C115.269 250.604 115.429 250.907 115.648 251.165C115.867 251.424 116.139 251.631 116.446 251.773C116.753 251.915 117.088 251.989 117.426 251.989C117.958 251.988 118.474 251.806 118.888 251.472C119.302 251.139 119.589 250.674 119.703 250.154L135.147 179.091H155.39L170.828 250.154C170.941 250.674 171.228 251.139 171.642 251.473C172.057 251.807 172.572 251.989 173.104 251.989C173.442 251.988 173.776 251.914 174.083 251.771C174.389 251.629 174.661 251.421 174.879 251.163C175.097 250.905 175.257 250.603 175.346 250.277C175.436 249.951 175.453 249.609 175.398 249.276Z" fill="#A15842"/>
<path d="M160.153 225.97V231.021H205.485V225.97H160.153Z" fill="#FFBE21"/>
<path d="M212.953 249.276L201.15 179.091H164.476L152.685 249.276C152.63 249.61 152.647 249.952 152.737 250.278C152.827 250.604 152.987 250.907 153.206 251.165C153.425 251.424 153.697 251.631 154.004 251.773C154.311 251.915 154.646 251.989 154.984 251.989C155.516 251.989 156.031 251.807 156.445 251.473C156.859 251.139 157.145 250.674 157.258 250.154L172.696 179.091H192.942L208.38 250.154C208.493 250.674 208.781 251.14 209.196 251.474C209.61 251.808 210.127 251.99 210.659 251.989C210.997 251.988 211.331 251.914 211.638 251.771C211.944 251.629 212.216 251.421 212.434 251.163C212.652 250.905 212.812 250.603 212.901 250.277C212.991 249.951 213.008 249.609 212.953 249.276Z" fill="#FFBE21"/>
<path d="M175.898 167.775L180.396 150.186H150.59C144.746 150.187 139.067 152.132 134.45 155.716C129.834 159.301 126.541 164.32 125.092 169.982L122.047 181.896H157.714C161.882 181.896 165.932 180.508 169.225 177.951C172.518 175.394 174.865 171.814 175.898 167.775Z" fill="#FFB7D5"/>
<path d="M123.985 176.658H161.825" stroke="#A15842" stroke-width="4" stroke-linecap="round" stroke-linejoin="round"/>
<path d="M154.607 176.482L161.238 150.556" stroke="#A15842" stroke-width="4" stroke-linecap="round" stroke-linejoin="round"/>
<path d="M215.414 149.585H197.515" stroke="#A15842" stroke-width="4" stroke-linecap="round" stroke-linejoin="round"/>
<path d="M218.77 137H195.837" stroke="#A15842" stroke-width="4" stroke-linecap="round" stroke-linejoin="round"/>
<path d="M135.233 131.317C135.233 131.317 112.795 137.428 103.263 142.196C87.5484 150.052 87.6016 155.237 78.0198 184.265C69.1737 211.092 68.2004 224.094 55.9981 224.608C46.6821 225 43.628 228.049 42.1177 232.227L78.9819 249.718C79.4045 249.918 79.8875 249.949 80.332 249.804C80.7766 249.66 81.149 249.351 81.3732 248.94C81.6015 248.521 81.657 248.029 81.528 247.569C81.399 247.11 81.0956 246.718 80.6824 246.479L79.9077 246.032C83.3337 241.881 89.9425 233.038 96.5317 219.605L100.727 221.563C100.727 221.563 107.503 212.756 108.577 202.766C109.976 189.864 109.137 181.169 115.029 176.121L183.746 131.305L135.233 131.317Z" fill="#FF7235"/>
<path d="M52.3762 226.681C53.1062 225.162 57.1615 215.91 59.494 217.029C62.5285 218.483 54.6528 227.772 54.6528 227.772L52.3762 226.681Z" fill="#30242A"/>
<path d="M42.1151 232.358L78.9793 249.846C79.406 250.05 79.8951 250.081 80.3438 249.931C80.7926 249.782 81.1661 249.465 81.3861 249.047C81.6061 248.628 81.6554 248.14 81.5237 247.686C81.392 247.232 81.0895 246.847 80.6797 246.611L79.905 246.163L79.9833 246.068L54.6446 234.106C55.0242 233.054 55.2905 231.965 55.4389 230.856C59.2313 231.514 66.9056 232.221 66.9448 229.058C66.9867 226.11 58.6048 227.293 55.5423 228.127C55.4763 226.994 55.2561 225.875 54.8879 224.801C46.4389 225.383 43.5638 228.348 42.1151 232.358Z" fill="#30242A"/>
<path d="M103.264 142.196C101.499 143.077 99.9354 143.924 98.5342 144.775L96.3835 151.663L104.662 145.832L112.294 151.918L109.481 143.575L118.126 139.615L111.444 138.776C108.658 139.77 105.928 140.911 103.264 142.196Z" fill="#FFB7D5"/>
<path d="M127.654 138.611L127.095 142.255L130.742 140.854L127.654 138.611Z" fill="#FFB7D5"/>
<path d="M106.62 156.84L101.292 163.851L93.7181 160.207L98.2041 167.778L91.1926 173.668L100.167 172.547L103.255 182.925L106.34 172.547L116.157 169.741L106.62 165.815V156.84Z" fill="#FFB7D5"/>
<path d="M76.6663 210.376L77.3207 208.508L86.2704 208.032L78.9988 203.082L82.2374 195.326L74.9127 200.21L73.5143 198.699C72.3956 202.383 71.4055 205.663 70.4379 208.547H70.4826C70.5889 208.231 70.6952 207.912 70.8014 207.587L76.6663 210.376Z" fill="#FFB7D5"/>
<path d="M76.6662 210.376L70.793 207.599C70.6867 207.923 70.5804 208.242 70.4742 208.558C66.9251 219.13 63.692 224.416 56.0037 224.74C55.6261 224.74 55.2625 224.776 54.9045 224.802C55.2728 225.875 55.493 226.994 55.559 228.127C58.6354 227.288 67.0034 226.11 66.9614 229.058C66.9167 232.221 59.2479 231.514 55.4555 230.857C55.3044 231.965 55.0354 233.055 54.6528 234.106L79.9915 246.068C83.4372 241.873 89.99 233.074 96.5288 219.753L76.6662 210.376Z" fill="#EAA58B"/>
<path d="M99.0459 189.095L98.2069 196.669L90.3536 196.389L97.0854 201.44L94.5683 210.415L101.306 204.522L107.361 208.561C107.529 208.026 107.682 207.484 107.822 206.936L105.501 201.155L109.098 197.214C109.156 196.481 109.212 195.76 109.265 195.058L102.984 196.107L99.0459 189.095Z" fill="#FFB7D5"/>
<path d="M81.5522 173.352C80.8446 175.539 80.0839 177.914 79.2449 180.495L86.7066 180.951L81.5522 173.352Z" fill="#FFB7D5"/>
<path d="M107.901 241.677C108.018 239.999 108.384 229.903 110.963 230.085C114.319 230.319 110.418 241.853 110.418 241.853L107.901 241.677Z" fill="#30242A"/>
<path d="M170.014 131.728C170.014 131.728 141.965 136.93 126.538 143.379C110.963 149.893 111.114 161.46 113.916 192.882C116.433 221.012 120.931 234.671 111.679 238.878C103.194 242.737 100.246 247.576 100.649 252H142.418C142.654 252 142.887 251.954 143.104 251.864C143.322 251.773 143.519 251.641 143.686 251.475C143.852 251.308 143.984 251.111 144.075 250.893C144.165 250.676 144.211 250.443 144.211 250.207C144.211 249.732 144.022 249.276 143.686 248.94C143.35 248.603 142.894 248.415 142.418 248.415H141.713C143.031 244.105 144.941 235.692 145.204 221.77H150.383C150.383 221.77 153.046 209.464 150.104 198.489C147.027 186.992 144.214 185.029 142.533 177.175H167.667C186.862 177.175 201.229 159.421 197.053 140.689C195.75 134.835 193.859 131.739 193.859 131.739L170.014 131.728Z" fill="#FF7235"/>
<path d="M152.624 148.145L147.475 154.622L139.456 151.867L144.208 159.645L138.039 168.061L146.172 164.693L150.705 173.05L151.22 163.851L159.073 162.171L152.344 157.961L152.624 148.145Z" fill="#FFB7D5"/>
<path d="M141.42 198.145L146.174 205.923L140.005 214.339L148.138 210.983L151.153 216.54C151.594 212.222 151.813 205.834 150.403 199.7L149.441 200.911L141.42 198.145Z" fill="#FFB7D5"/>
<path d="M120.45 221.759L120.089 217.424L129.195 213.911L120.575 212.124L121.526 202.662L115.933 209.981L115.765 209.911C116.302 214.428 116.772 218.375 117.035 221.789V221.759H120.45Z" fill="#FFB7D5"/>
<path d="M142.418 248.403H141.713C143.031 244.094 144.941 235.681 145.204 221.759H117.026V221.784C117.049 222.063 117.068 222.343 117.088 222.623C117.088 222.648 117.088 222.676 117.088 222.701C117.672 231.441 116.719 236.553 111.668 238.85C103.182 242.709 100.235 247.548 100.637 251.972H142.418C142.894 251.972 143.35 251.783 143.686 251.447C144.022 251.111 144.211 250.655 144.211 250.179C144.211 249.704 144.022 249.248 143.686 248.912C143.35 248.575 142.894 248.387 142.418 248.387V248.403Z" fill="#EAA58B"/>
<path d="M179.817 132.452L166.932 133.593L168.274 138.773L160.032 143.169L170.299 144.543L173.773 152.236L177.344 144.268L187.787 142.618L178.717 137.948L179.817 132.452Z" fill="#FFB7D5"/>
<path d="M118.405 168.9L121.482 159.083L130.457 160.481L123.445 154.312L128.479 148.422L119.225 151.778L117.745 149.241C115.365 151.937 113.928 155.285 113.159 159.589L114.736 159.639L118.405 168.9Z" fill="#FFB7D5"/>
<path d="M142.418 138.104C140.525 138.63 138.64 139.181 136.8 139.749L144.214 144.783L142.418 138.104Z" fill="#FFB7D5"/>
<path d="M130.185 183.485L126.259 175.352L124.295 184.327L117.004 183.767L123.733 189.657L119.527 199.474L126.829 192.667L132.881 199.644L131.027 189.095L137.197 180.962L130.185 183.485Z" fill="#FFB7D5"/>
<path d="M113.536 245.123C117.245 244.099 124.483 241.465 123.174 238.587C121.954 235.902 114.879 240.544 112.465 242.611C111.856 241.493 111.077 240.476 110.158 239.596C102.836 243.324 100.265 247.838 100.649 251.989H142.418C142.894 251.989 143.35 251.8 143.686 251.464C144.022 251.128 144.211 250.672 144.211 250.196C144.211 249.721 144.022 249.265 143.686 248.928C143.35 248.592 142.894 248.403 142.418 248.403H114.199C114.094 247.29 113.872 246.19 113.536 245.123Z" fill="#30242A"/>
<path d="M142.418 177.793L135.197 177.693" stroke="#A15842" stroke-width="4" stroke-miterlimit="10" stroke-linecap="round"/>
<path d="M147.788 136.879C140.307 138.787 132.311 141.128 126.253 143.656C113.332 149.068 111.237 157.95 112.493 178.781" stroke="#A15842" stroke-width="4" stroke-miterlimit="10" stroke-linecap="round"/>
<path d="M242.733 135.243H235.864V251.989H242.733V135.243Z" fill="#FFBE21"/>
<path d="M242.733 136.849H235.864" stroke="#A15842" stroke-width="4" stroke-miterlimit="10"/>
<path d="M143.087 47.4555C139.171 46.8962 130.202 51.1053 129.906 59.4257C129.609 67.7461 137.037 70.4198 138.226 71.0155L155.462 68.339L156.651 49.321L143.087 47.4555Z" fill="#A15842"/>
<path d="M173.538 26.793C180.937 26.793 186.934 20.7952 186.934 13.3965C186.934 5.99782 180.937 0 173.538 0C166.139 0 160.141 5.99782 160.141 13.3965C160.141 20.7952 166.139 26.793 173.538 26.793Z" fill="#A15842"/>
<path d="M164.848 22.609C165.665 22.9866 158.788 6.66745 155.278 9.21251C151.975 11.6149 160.701 20.696 164.848 22.609Z" fill="#30242A"/>
<path d="M165.229 23.6075C165.978 24.5025 183.525 18.3636 181.097 14.8229C178.776 11.4164 164.479 22.7097 165.229 23.6075Z" fill="#30242A"/>
<path d="M188.523 68.49C188.523 68.49 200.303 58.6734 192.718 47.7352C187.891 40.7629 174.766 43.5401 174.766 43.5401C175.084 39.7113 176.125 28.6808 167.83 22.6202C159.534 16.5596 149.01 19.7508 145.176 24.5332C141.341 29.3157 142.306 38.2514 141.031 44.6308C139.756 51.0102 140.606 55.348 144.538 57.3897C148.115 59.2467 152.324 58.1252 152.324 58.1252L151.877 64.857C151.877 64.857 143.766 65.1619 138.796 66.9602C126.821 71.2952 105.781 101.025 105.781 101.025C92.5993 100.465 80.2572 99.9061 80.2572 99.9061L86.7093 118.98C86.7093 118.98 102.975 124.308 114.755 121.217C126.706 118.088 138.036 101.305 138.036 101.305L141.951 112.522L135.219 131.314H193.84L184.023 113.924C185.721 98.5022 188.523 68.49 188.523 68.49Z" fill="#EAA58B"/>
<path d="M169.687 64.1579L154.304 92.05L148.012 65.1367C145.246 65.4164 141.56 65.959 138.824 66.949C126.821 71.2952 105.781 101.025 105.781 101.025C92.5993 100.466 80.2572 99.9062 80.2572 99.9062L86.7093 118.98C86.7093 118.98 102.975 124.308 114.755 121.218C126.706 118.088 138.036 101.305 138.036 101.305L141.951 112.522L135.219 131.314H193.84L184.023 113.926C185.701 98.4994 188.498 68.4873 188.498 68.4873C185.901 66.9063 183.057 65.7718 180.085 65.1311C176.737 64.376 173.057 64.8263 169.687 64.1579Z" fill="#4756DF"/>
<path d="M90.0264 129.353H138.601L127.556 94.472C127.232 93.4441 126.588 92.5463 125.718 91.9091C124.849 91.2719 123.799 90.9284 122.721 90.9285H81.6696C80.872 90.928 80.0854 91.1157 79.374 91.4764C78.6625 91.837 78.0461 92.3604 77.575 93.0041C77.1038 93.6477 76.7912 94.3934 76.6624 95.1806C76.5337 95.9678 76.5925 96.7743 76.834 97.5345L85.9627 126.38C86.2365 127.243 86.778 127.997 87.5086 128.531C88.2392 129.066 89.1211 129.354 90.0264 129.353Z" fill="#30242A"/>
<path d="M97.2644 106.708C98.5537 104.946 104.402 109.6 104.832 109.983C105.056 109.6 108.102 104.949 110.334 106.708C112.272 108.235 108.012 115.056 106.88 116.796C106.832 116.849 106.774 116.891 106.709 116.92C106.645 116.948 106.574 116.963 106.504 116.963C106.433 116.963 106.362 116.948 106.298 116.92C106.233 116.891 106.175 116.849 106.127 116.796C104.061 115.056 96.1457 108.235 97.2644 106.708Z" fill="#A15842"/>
<path d="M104.351 107.888C104.839 107.736 104.857 106.401 104.392 104.907C103.927 103.413 103.154 102.326 102.666 102.478C102.177 102.63 102.159 103.964 102.624 105.458C103.089 106.952 103.862 108.04 104.351 107.888Z" fill="#A15842"/>
<path d="M166.806 125.427C166.947 125.878 166.979 126.356 166.901 126.822C166.823 127.288 166.637 127.73 166.357 128.11C166.078 128.491 165.712 128.801 165.291 129.015C164.869 129.229 164.404 129.341 163.931 129.342H90.0263C89.1211 129.342 88.2392 129.054 87.5086 128.52C86.7779 127.985 86.2365 127.232 85.9626 126.369L85.6606 125.415L166.806 125.427Z" fill="#30242A"/>
<path d="M254.569 129.353H38.0402V136.365H254.569V129.353Z" fill="#FFBE21"/>
<path d="M211.356 167.775L215.853 150.186H189.619C183.775 150.187 178.097 152.132 173.481 155.717C168.864 159.301 165.572 164.32 164.124 169.982L161.076 181.896H193.168C197.337 181.896 201.388 180.508 204.681 177.951C207.974 175.394 210.322 171.814 211.356 167.775Z" fill="#FFB7D5"/>
<path d="M161.696 177.284L160.659 181.67" stroke="#A15842" stroke-width="4" stroke-linecap="round" stroke-linejoin="round"/>
<path d="M77.9192 100.916C74.6554 102.546 73.0248 105.265 73.0248 107.169C73.0248 109.949 75.8552 110.472 75.8552 110.472C75.8552 110.472 73.7436 113.792 77.4158 115.35C77.4158 115.35 77.4158 118.768 80.8362 118.768C80.8362 118.768 80.3831 121.433 83.9518 121.685C87.5205 121.936 91.1926 120.074 91.5031 118.868C91.8583 117.445 90.899 116.253 88.3092 115.876C88.3092 115.876 91.8051 114.242 91.2514 112.181C90.6976 110.12 88.3343 110.167 88.3343 110.167C88.3343 110.167 90.5969 108.811 89.3887 106.811C88.1805 104.812 85.8704 105.505 85.8704 105.505C85.8704 105.505 86.4745 104.107 85.4173 103.041C84.1588 101.783 78.747 103.371 78.747 103.371L77.9192 100.916Z" fill="#EAA58A"/>
<path d="M80.8615 118.899C83.8065 118.193 86.6638 117.161 89.3804 115.823" stroke="#A15842" stroke-width="4" stroke-miterlimit="10" stroke-linecap="round"/>
<path d="M77.4074 115.333C81.4907 114.213 85.3892 112.505 88.9804 110.263" stroke="#A15842" stroke-width="4" stroke-miterlimit="10" stroke-linecap="round"/>
<path d="M75.5755 110.87C79.3594 109.75 82.9344 108.018 86.1585 105.743" stroke="#A15842" stroke-width="4" stroke-miterlimit="10" stroke-linecap="round"/>
<path d="M192.732 47.7352C187.905 40.7629 174.78 43.5401 174.78 43.5401C175.099 39.7113 176.139 28.6808 167.844 22.6202C159.548 16.5596 149.024 19.7508 145.19 24.5332C143.629 26.491 142.866 29.1255 142.421 32.0006C144.966 32.4285 148.7 31.5531 148.7 31.5531C153.804 37.2949 158.377 38.2066 158.377 38.2066C161.948 34.6351 168.213 34.7526 169.231 40.1644C170.288 45.7831 161.313 48.3086 161.313 48.3086C161.313 48.3086 160.474 58.4049 164.949 62.0519C166.322 63.1405 167.946 63.8683 169.673 64.169C173.029 64.8375 176.723 64.3872 180.096 65.1367C183.068 65.7774 185.912 66.9118 188.509 68.4928C189.534 67.59 190.47 66.5917 191.306 65.5115C194.248 61.7806 197.766 55.0068 192.732 47.7352Z" fill="#A15842"/>
<path d="M154.025 29.5059C152.347 30.9043 150.389 31.7433 148.135 32.3027" stroke="#EAA58B" stroke-width="4" stroke-miterlimit="10" stroke-linecap="round"/>
<path d="M152.232 58.7544C153.535 58.32 154.791 57.7579 155.983 57.0764" stroke="#A15842" stroke-width="4" stroke-miterlimit="10" stroke-linecap="round"/>
<path d="M161.657 42.6675L164.208 41.0733" stroke="#A15842" stroke-width="4" stroke-miterlimit="10" stroke-linecap="round"/>
<path d="M147.022 50.1544C147.55 50.4817 149.539 50.7362 150.328 49.2175" stroke="#A15842" stroke-width="4" stroke-miterlimit="10" stroke-linecap="round"/>
<path d="M152.218 42.9779C152.746 42.9779 153.175 42.5497 153.175 42.0214C153.175 41.4932 152.746 41.0649 152.218 41.0649C151.69 41.0649 151.262 41.4932 151.262 42.0214C151.262 42.5497 151.69 42.9779 152.218 42.9779Z" fill="#30242A"/>
<path d="M144.289 41.7111C144.818 41.7111 145.246 41.2829 145.246 40.7546C145.246 40.2263 144.818 39.7981 144.289 39.7981C143.761 39.7981 143.333 40.2263 143.333 40.7546C143.333 41.2829 143.761 41.7111 144.289 41.7111Z" fill="#30242A"/>
<path d="M146.983 44.449C146.792 45.0503 146.627 45.7048 146.737 45.9229C146.886 46.1994 147.114 46.4259 147.391 46.5746" stroke="#A15842" stroke-width="4" stroke-miterlimit="10" stroke-linecap="round"/>
<path d="M162.857 52.0395C164.708 52.0395 166.208 50.5394 166.208 48.6889C166.208 46.8385 164.708 45.3384 162.857 45.3384C161.007 45.3384 159.507 46.8385 159.507 48.6889C159.507 50.5394 161.007 52.0395 162.857 52.0395Z" fill="#F5EBDD"/>
<path d="M146.739 41.2922C147.318 38.3129 145.614 35.4747 142.932 34.9529C140.25 34.431 137.606 36.4232 137.026 39.4025C136.446 42.3818 138.151 45.22 140.833 45.7419C143.515 46.2637 146.159 44.2715 146.739 41.2922Z" stroke="#30242A" stroke-width="4" stroke-miterlimit="10" stroke-linecap="round"/>
<path d="M158.891 42.7823C159.47 39.803 157.766 36.9648 155.084 36.443C152.402 35.9211 149.758 37.9133 149.178 40.8926C148.598 43.8719 150.303 46.7101 152.985 47.232C155.667 47.7538 158.311 45.7616 158.891 42.7823Z" stroke="#30242A" stroke-width="4" stroke-miterlimit="10" stroke-linecap="round"/>
<path d="M146.969 40.8412L148.901 41.0481" stroke="#30242A" stroke-width="4" stroke-miterlimit="10" stroke-linecap="round"/>
<path d="M175.42 43.9093L174.864 47.4891" stroke="#30242A" stroke-width="4" stroke-miterlimit="10" stroke-linecap="round"/>
<path d="M134.954 94.0133L137.661 101.892" stroke="#30242A" stroke-width="4" stroke-linecap="round" stroke-linejoin="round"/>
<path d="M149.256 111.963H142.139" stroke="#30242A" stroke-width="4" stroke-linecap="round" stroke-linejoin="round"/>
<path d="M154.867 91.7704L157.11 102.709V112.805" stroke="#30242A" stroke-width="4" stroke-linecap="round" stroke-linejoin="round"/>
<path d="M139.949 66.7057L144.208 76.3433L139.16 75.784L157.11 102.708" stroke="#30242A" stroke-width="4" stroke-linecap="round" stroke-linejoin="round"/>
<path d="M181.45 65.559L174.22 75.784L180.952 75.2219L156.268 97.0982" stroke="#30242A" stroke-width="4" stroke-linecap="round" stroke-linejoin="round"/>
<path d="M185.209 99.8446L179.831 92.3325" stroke="#30242A" stroke-width="4" stroke-linecap="round" stroke-linejoin="round"/>
<path d="M191.432 127.533C188.503 126.557 183.248 124.672 180.079 122.778" stroke="#30242A" stroke-width="4" stroke-linecap="round" stroke-linejoin="round"/>
<path d="M110.661 57.9407C113.699 57.9407 116.162 55.4777 116.162 52.4394C116.162 49.4012 113.699 46.9382 110.661 46.9382C107.623 46.9382 105.16 49.4012 105.16 52.4394C105.16 55.4777 107.623 57.9407 110.661 57.9407Z" fill="#FFB7D5"/>
<path d="M94.2194 30.5464L91.0165 26.6844C90.5234 26.0899 89.6419 26.0076 89.0474 26.5007L88.9785 26.5578C88.384 27.0508 88.3018 27.9324 88.7948 28.5268L91.9977 32.3889C92.4908 32.9834 93.3723 33.0656 93.9668 32.5726L94.0357 32.5155C94.6302 32.0225 94.7124 31.1409 94.2194 30.5464Z" fill="#4756DF"/>
<path d="M99.9801 35.2393L96.7582 31.3518L38.8456 79.3723C38.3405 79.7914 38.0226 80.394 37.9618 81.0475C37.9009 81.701 38.1021 82.3519 38.5211 82.8571L38.5854 82.9354C38.7927 83.1854 39.0473 83.392 39.3345 83.5436C39.6216 83.6952 39.9359 83.7888 40.2592 83.8189C40.5826 83.849 40.9087 83.8152 41.2189 83.7192C41.5292 83.6233 41.8175 83.4672 42.0674 83.2598L60.1737 68.2411V120.941H65.2275V64.046L99.9801 35.2393Z" fill="#3EC1F3"/>
<path d="M90.6473 36.358L92.261 38.3157C92.823 38.9949 93.2502 39.7752 93.5195 40.6147" stroke="#4756DF" stroke-width="4" stroke-miterlimit="10"/>
<path d="M62.6991 69.4074C66.3397 69.4074 69.2911 66.4561 69.2911 62.8154C69.2911 59.1748 66.3397 56.2234 62.6991 56.2234C59.0584 56.2234 56.1071 59.1748 56.1071 62.8154C56.1071 66.4561 59.0584 69.4074 62.6991 69.4074Z" fill="#4756DF"/>
<path d="M62.6992 65.3493C64.0986 65.3493 65.2331 64.2148 65.2331 62.8154C65.2331 61.416 64.0986 60.2815 62.6992 60.2815C61.2998 60.2815 60.1653 61.416 60.1653 62.8154C60.1653 64.2148 61.2998 65.3493 62.6992 65.3493Z" fill="#3EC1F3"/>
<path d="M115.178 49.3154L106.745 56.2849" stroke="#A15842" stroke-width="4" stroke-miterlimit="10"/>
<path d="M104.254 34.5345C102.48 34.3262 100.856 33.4427 99.7172 32.0677L97.4798 29.3632C96.689 28.4112 95.5526 27.8119 94.3203 27.6971C93.088 27.5822 91.8605 27.9612 90.9074 28.7508C90.4357 29.1419 90.0457 29.622 89.7597 30.1639C89.4737 30.7057 89.2972 31.2986 89.2403 31.9087C89.1834 32.5187 89.2473 33.134 89.4282 33.7194C89.6092 34.3048 89.9037 34.8488 90.2949 35.3204L92.5323 38.0332C93.6659 39.4043 94.2296 41.1584 94.1069 42.9332L93.5475 51.1109C93.2703 55.1122 94.286 59.0967 96.445 62.477L97.161 63.5957L123.99 41.3418L123.028 40.4384C120.108 37.691 116.382 35.9547 112.401 35.4854L104.254 34.5345Z" fill="#3EC1F3"/>
<path d="M65.2275 120.941H60.1737L52.7035 122.977C51.3048 123.358 50.0705 124.189 49.1906 125.342C48.3107 126.494 47.8341 127.904 47.8344 129.353H77.564C77.564 127.903 77.0871 126.493 76.2067 125.341C75.3262 124.189 74.0912 123.358 72.692 122.977L65.2275 120.941Z" fill="#3EC1F3"/>
<path d="M118.9 37.3844L94.3474 57.6777" stroke="#4756DF" stroke-width="4" stroke-miterlimit="10" stroke-linecap="round"/>
<path d="M60.0506 120.362H65.2274" stroke="#4756DF" stroke-width="4" stroke-miterlimit="10" stroke-linecap="round"/>
<path d="M48.816 125.857H76.4145" stroke="#4756DF" stroke-width="4" stroke-miterlimit="10" stroke-linecap="round"/>
<path d="M207.879 201.504C208.439 196.75 208.159 186.077 201.989 177.944C195.82 169.811 204.227 173.19 206.744 175.427C210.771 179.007 214.318 182.439 217.402 193.939L207.879 201.504Z" fill="#30242A"/>
<path d="M282.377 251.989H315.303V250.912C315.303 249.394 314.699 247.939 313.625 246.866C312.552 245.793 311.096 245.19 309.578 245.19H282.206L282.377 251.989Z" fill="#A15842"/>
<path d="M202.057 220.553L209.001 251.989H221.905V250.031C221.905 248.769 221.405 247.558 220.514 246.664C219.622 245.77 218.413 245.266 217.151 245.263C217.151 245.263 223.6 240.427 227.527 235.658C227.527 235.658 234.259 243.861 243.796 242.457L244.486 245.813C244.846 247.555 245.794 249.12 247.172 250.245C248.55 251.37 250.273 251.986 252.052 251.989H283.328C297.2 251.989 304.024 249.872 304.415 241.974C304.428 241.672 304.379 241.372 304.272 241.09C304.165 240.808 304.002 240.551 303.793 240.333C303.584 240.116 303.333 239.943 303.055 239.825C302.778 239.707 302.48 239.646 302.178 239.647H293.447C293.087 239.647 292.731 239.566 292.406 239.411C292.081 239.256 291.796 239.029 291.57 238.749L287.853 234.137C286.751 232.772 285.281 231.752 283.617 231.199C281.952 230.645 280.164 230.58 278.464 231.013L270.988 232.923C270.988 232.923 257.743 213.888 245.745 200.668C234.278 188.046 212.709 186.684 204.213 203.124C201.481 208.503 200.718 214.67 202.057 220.553Z" fill="#A15842"/>
<path d="M280.243 251.989V250.912C280.243 250.16 280.095 249.416 279.807 248.722C279.519 248.027 279.098 247.396 278.566 246.865C278.034 246.334 277.403 245.912 276.709 245.625C276.014 245.337 275.27 245.19 274.518 245.19H270.706" stroke="#30242A" stroke-width="4" stroke-miterlimit="10"/>
<path d="M228.047 235.882C230.005 233.553 236.686 224.975 236.208 216.585C235.696 207.607 230.318 202.841 230.318 202.841" stroke="#30242A" stroke-width="4" stroke-miterlimit="10" stroke-linecap="round"/>
<path d="M242.098 230.605C242.098 230.605 242.456 237.242 243.175 242.197" stroke="#30242A" stroke-width="4" stroke-miterlimit="10" stroke-linecap="round"/>
<path d="M215.173 249.117V251.709" stroke="#30242A" stroke-width="4" stroke-miterlimit="10" stroke-linecap="round"/>
<path d="M218.258 249.117V251.709" stroke="#30242A" stroke-width="4" stroke-miterlimit="10" stroke-linecap="round"/>
<path d="M274.073 249.117V251.709" stroke="#30242A" stroke-width="4" stroke-miterlimit="10" stroke-linecap="round"/>
<path d="M277.158 249.117V251.709" stroke="#30242A" stroke-width="4" stroke-miterlimit="10" stroke-linecap="round"/>
<path d="M285.431 241.543C286.128 241.543 286.692 240.978 286.692 240.282C286.692 239.585 286.128 239.02 285.431 239.02C284.734 239.02 284.17 239.585 284.17 240.282C284.17 240.978 284.734 241.543 285.431 241.543Z" fill="#30242A"/>
<path d="M278.548 230.988V230.954L270.977 232.912L278.453 231.002L278.548 230.988Z" fill="#30242A"/>
<path d="M259.916 245.316C257.723 246.434 254.625 248.624 254.882 251.941H267.059L269.618 247.906C270.036 247.245 270.614 246.702 271.299 246.325C271.983 245.948 272.752 245.75 273.534 245.749H274.347L278.52 231.072L278.459 231.007L270.983 232.918L263.826 242.085C262.772 243.433 261.438 244.535 259.916 245.316Z" fill="#30242A"/>
<path d="M242.131 207.52C242.131 207.52 238.745 219.244 249.683 223.672C255.229 225.909 259.835 224.211 263.032 221.993C258.202 215.561 251.811 207.372 245.742 200.682C244.22 199.008 242.51 197.515 240.646 196.232C238.991 198.487 237.178 204.063 242.131 207.52Z" fill="#EAA58B"/>
<path d="M214.192 216.022C216.748 216.022 218.82 213.95 218.82 211.394C218.82 208.837 216.748 206.765 214.192 206.765C211.635 206.765 209.563 208.837 209.563 211.394C209.563 213.95 211.635 216.022 214.192 216.022Z" fill="#EAA58B"/>
<path d="M302.189 239.647H300.511C300.419 240.115 300.431 240.597 300.547 241.06C300.663 241.522 300.88 241.954 301.182 242.323C301.485 242.691 301.865 242.989 302.296 243.194C302.727 243.398 303.197 243.505 303.674 243.506C303.871 243.506 304.068 243.487 304.262 243.45C304.347 242.962 304.402 242.469 304.427 241.974C304.439 241.672 304.39 241.372 304.283 241.09C304.176 240.808 304.013 240.551 303.804 240.333C303.595 240.116 303.344 239.943 303.067 239.825C302.789 239.707 302.491 239.646 302.189 239.647Z" fill="#30242A"/>
<path d="M308.851 249.117V251.645" stroke="#30242A" stroke-width="4" stroke-miterlimit="10" stroke-linecap="round"/>
<path d="M311.936 249.117V251.645" stroke="#30242A" stroke-width="4" stroke-miterlimit="10" stroke-linecap="round"/>
<path d="M291.925 251.653C298.783 250.962 302.872 249.105 304.357 245.154" stroke="#30242A" stroke-width="4" stroke-linecap="round" stroke-linejoin="round"/>
<path d="M180.11 104.507C176.659 104.198 173.189 104.159 169.731 104.392C164.787 104.798 158.139 106.093 155.468 107.385C152.797 108.677 142.569 113.238 145.324 114.768C147.841 116.167 153.121 114.063 153.121 114.063C153.121 114.063 147.852 118.907 146.946 120.935C146.04 122.963 149.035 124.101 149.035 124.101C149.824 127.563 153.354 126.076 153.354 126.076C155.577 130.805 167.589 120.558 167.589 120.558C170.447 120.854 173.333 120.733 176.156 120.197C176.156 120.197 177.677 121.05 180.119 122.236L180.11 104.507Z" fill="#EAA58A"/>
<path d="M210.12 128.232C232.558 117.573 200.032 77.7502 188.523 68.4901L182.074 94.5755L190.207 105.793C186.644 105.178 183.237 104.756 180.11 104.507V122.236C187.231 125.698 202.194 132.007 210.12 128.232Z" fill="#4756DF"/>
<path d="M152.047 114.357C154.039 112.71 157.345 110.047 159.811 108.442" stroke="#A15842" stroke-width="4" stroke-miterlimit="10" stroke-linecap="round"/>
<path d="M162.53 112.377C156.799 116.088 151.578 121.047 148.993 123.642" stroke="#A15842" stroke-width="4" stroke-miterlimit="10" stroke-linecap="round"/>
<path d="M165.072 116.575C161.157 119.263 156.612 123.338 153.644 126.134" stroke="#A15842" stroke-width="4" stroke-miterlimit="10" stroke-linecap="round"/>
<path d="M232.39 115.067C232.814 115.068 233.221 115.237 233.521 115.537C233.82 115.837 233.989 116.243 233.99 116.667V116.905C233.989 117.329 233.82 117.735 233.521 118.035C233.221 118.335 232.814 118.504 232.39 118.505H224.148V115.067H232.39ZM232.39 112.83H222.213C222.173 112.83 222.133 112.838 222.097 112.853C222.06 112.869 222.026 112.891 221.998 112.919C221.97 112.948 221.948 112.981 221.933 113.018C221.918 113.055 221.91 113.095 221.911 113.135V120.448C221.911 120.529 221.943 120.605 221.999 120.662C222.056 120.719 222.133 120.75 222.213 120.75H232.39C232.895 120.75 233.395 120.651 233.861 120.458C234.327 120.264 234.75 119.981 235.107 119.624C235.463 119.266 235.745 118.842 235.938 118.376C236.13 117.909 236.229 117.41 236.227 116.905V116.659C236.227 115.641 235.823 114.665 235.104 113.946C234.384 113.226 233.408 112.822 232.39 112.822V112.83Z" fill="#3EC1F3"/>
<path d="M220.085 111.625C211.75 111.625 207.899 104.982 207.899 104.982L213.493 129.353H226.66L232.253 104.982C230.954 107.03 229.156 108.714 227.027 109.876C224.899 111.038 222.51 111.64 220.085 111.625Z" fill="#3EC1F3"/>
<path d="M220.085 111.625C222.512 111.643 224.905 111.042 227.037 109.88C229.169 108.718 230.97 107.033 232.27 104.982H207.899C207.899 104.982 211.75 111.625 220.085 111.625Z" fill="#30242A"/>
</svg>
